{"title":"The Condemned (2007) BDRip 1080p Dual Audio [Hindi ORG DD 5.1-En","uid":10759044,"size":3804275293,"categoryP":"video","categoryS":"hd___movies","magnet":"?xt=urn:btih:666a81b492591f32c7ddbc8aaeaeed28a3bdda38&amp;dn=The+Condemned+%282007%29+BDRip+1080p+Dual+Audio+%5BHindi+ORG+DD+5.1-En&amp;tr=udp%3A%2F%2Ftracker.openbittorrent.com%3A80&amp;tr=udp%3A%2F%2Fopen.demonii.com%3A1337&amp;tr=udp%3A%2F%2Ftracker.coppersurfer.tk%3A6969&amp;tr=udp%3A%2F%2Fexodus.desync.com%3A6969","seeders":0,"leechers":2,"uploader":"inovai","files":22,"time":1407957200,"description":"The Condemned (2007) BDRip 1080p Dual Audio [Hindi ORG DD 5.1-Eng 5.1] TQMovies.mkv\n\nCover:\n &lt;a href=&quot;\nhttp://forum.primetimeshow.in/viewtopic.php?f=7&amp;t=584&quot; rel=&quot;nofollow&quot; target=&quot;_NEW&quot;&gt;\nhttp://forum.primetimeshow.in/viewtopic.php?f=7&amp;t=584&lt;/a&gt;\n\n:GENERAL INFO:\n\nFormat : Matroska\nFormat version : Version 4 / Version 2\nFile size : 3.50 GiB\nDuration : 1h 53mn\nOverall bit rate : 4 404 Kbps\nMovie name : The Condemned (2007) BDRip 1080p Dual Audio [Hindi ORG DD 5.1-Eng 5.1] TQMovies\n\n============================================================================\n\n:VIDEO INFO:\nID : 1\nFormat : AVC\nFormat/Info : Advanced Video Codec\nFormat profile : &lt;a class=&quot;__cf_email__&quot; href=&quot;/cdn-cgi/l/email-protection&quot; data-cfemail=&quot;4109282629010d756f70&quot;&gt;[email&amp;#160;protected]&lt;/a&gt;&lt;script cf-hash='f9e31' type=&quot;text/javascript&quot;&gt;\n/* &lt;![CDATA[ */!function(){try{var t=&quot;currentScript&quot;in document?document.currentScript:function(){for(var t=document.getElementsByTagName(&quot;script&quot;),e=t.length;e--;)if(t[e].getAttribute(&quot;cf-hash&quot;))return t[e]}();if(t&amp;&amp;t.previousSibling){var e,r,n,i,c=t.previousSibling,a=c.getAttribute(&quot;data-cfemail&quot;);if(a){for(e=&quot;&quot;,r=parseInt(a.substr(0,2),16),n=2;a.length-n;n+=2)i=parseInt(a.substr(n,2),16)^r,e+=String.fromCharCode(i);e=document.createTextNode(e),c.parentNode.replaceChild(e,c)}}}catch(u){}}();/* ]]&gt; */&lt;/script&gt;\nFormat settings, CABAC : Yes\nFormat settings, ReFrames : 4 frames\nCodec ID : V_MPEG4/ISO/AVC\nDuration : 1h 53mn\nBit rate : 3 500 Kbps\nWidth : 1 920 pixels\nHeight : 1 080 pixels\nDisplay aspect ratio : 16:9\nFrame rate mode : Constant\nFrame rate : 23.976 fps\nStream size : 2.72 GiB (78%)\nWriting library : x264 core 142 r2431 ac76440\nDURATION : 01:53:39\nLanguage : English\nDefault : Yes\nForced : No\n\n============================================================================\n\n:AUDIO 1:\nID : 2\nFormat : AC-3\nFormat/Info : Audio Coding 3\nMode extension : CM (complete main)\nFormat settings, Endianness : Big\nCodec ID : A_AC3\nDuration : 1h 53mn\nBit rate mode : Constant\nBit rate : 448 Kbps\nChannel(s) : 6 channels\nChannel positions : Front: L C R, Side: L R, LFE\nSampling rate : 48.0 KHz\nBit depth : 16 bits\nCompression mode : Lossy\nDelay relative to video : 3s 0ms\nStream size : 364 MiB (10%)\nTitle : TQMovies 5.1 @ 448 Kbps\nLanguage : Hindi\nDefault : Yes\nForced : No\n\nSOURCE With Thanks :Prisak\n\n============================================================================\n\n:AUDIO 2:\nID : 3\nFormat : AC-3\nFormat/Info : Audio Coding 3\nMode extension : CM (complete main)\nFormat settings, Endianness : Big\nCodec ID : A_AC3\nDuration : 1h 53mn\nBit rate mode : Constant\nBit rate : 448 Kbps\nChannel(s) : 6 channels\nChannel positions : Front: L C R, Side: L R, LFE\nSampling rate : 48.0 KHz\nBit depth : 16 bits\nCompression mode : Lossy\nStream size : 364 MiB (10%)\nTitle : TQMovies 5.1 @ 448 Kbps\nLanguage : English\nDefault : No\nForced : No\n\n============================================================================\n:SUBTITLE:\nText\nID : 4\nFormat : PGS\nMuxing mode : zlib\nCodec ID : S_HDMV/PGS\nCodec ID/Info : The same subtitle format used on BDs/HD-DVDs\nTitle : TQMovies\nLanguage : English\nDefault : No\nForced : No\n\nMENU : YES\n\nThanks to TQmovies!!\n\nSeedn ENjoy!!","torrent":{"xt":"urn:btih:666a81b492591f32c7ddbc8aaeaeed28a3bdda38","amp;dn":"The+Condemned+%282007%29+BDRip+1080p+Dual+Audio+%5BHindi+ORG+DD+5.1-En","amp;tr":["udp%3A%2F%2Ftracker.openbittorrent.com%3A80","udp%3A%2F%2Fopen.demonii.com%3A1337","udp%3A%2F%2Ftracker.coppersurfer.tk%3A6969","udp%3A%2F%2Fexodus.desync.com%3A6969"],"infoHash":"666a81b492591f32c7ddbc8aaeaeed28a3bdda38","infoHashBuffer":{"type":"Buffer","data":[102,106,129,180,146,89,31,50,199,221,188,138,174,174,237,40,163,189,218,56]},"announce":[],"urlList":[]}}